SplineFontDB: 3.0
FontName: MendozaHebrew-Regular
FullName: Mendoza Hebrew Regular
FamilyName: MendozaHebrew
Weight: Regular
Copyright: Copyright (c) 2014 Ryan Dorsey\nCreated with FontForge 2.0 (http://fontforge.sf.net)\nLicensed under SIL Open Font License v1.1 (http://scripts.sil.org/OFL)
UComments: "2014-10-16: Created." 
Version: 0.1
ItalicAngle: 0
UnderlinePosition: -100
UnderlineWidth: 50
Ascent: 800
Descent: 200
LayerCount: 2
Layer: 0 0 "Back"  1
Layer: 1 0 "Fore"  0
XUID: [1021 933 46516408 8207633]
FSType: 8
OS2Version: 0
OS2_WeightWidthSlopeOnly: 0
OS2_UseTypoMetrics: 1
CreationTime: 1413475767
ModificationTime: 1413487359
PfmFamily: 17
TTFWeight: 500
TTFWidth: 5
LineGap: 90
VLineGap: 0
OS2TypoAscent: 0
OS2TypoAOffset: 1
OS2TypoDescent: 0
OS2TypoDOffset: 1
OS2TypoLinegap: 90
OS2WinAscent: 0
OS2WinAOffset: 1
OS2WinDescent: 0
OS2WinDOffset: 1
HheadAscent: 0
HheadAOffset: 1
HheadDescent: 0
HheadDOffset: 1
OS2Vendor: 'PfEd'
OS2CodePages: 00000020.00000000
OS2UnicodeRanges: 00000800.00000000.00000000.00000000
MarkAttachClasses: 1
DEI: 91125
LangName: 1033 
Encoding: iso8859-8
UnicodeInterp: none
NameList: Adobe Glyph List
DisplaySize: -24
AntiAlias: 1
FitToEm: 1
WinInfo: 0 73 22
BeginPrivate: 0
EndPrivate
TeXData: 1 0 0 346030 173015 115343 0 1048576 115343 783286 444596 497025 792723 393216 433062 380633 303038 157286 324010 404750 52429 2506097 1059062 262144
BeginChars: 256 29

StartChar: afii57664
Encoding: 224 1488 0
Width: 697
VWidth: 0
Flags: W
HStem: -9.96875 100.306<178.962 306.034>
VStem: 93.46 212.825<0.480856 89.6999>
LayerCount: 2
Fore
SplineSet
484.83 237.706 m 4
 478.851 232.064 476.306 222.576 480.92 216.743 c 4
 517.016 171.114 552.584 135.775 591.231 97.6289 c 4
 597.229 91.71 598.831 64.7275 598.29 48.665 c 4
 597.58 27.5615 593.846 8.82324 586.905 -10.3867 c 4
 583.686 -19.2979 564.653 -19.1738 554.834 -6.78418 c 4
 416.664 167.562 320.544 281.825 208.784 392.313 c 4
 200.938 400.07 194.442 402.518 191.947 390.582 c 4
 175.595 312.363 171.79 269.847 166.299 193.061 c 4
 163.293 151.019 163.277 102.402 200.947 98.8496 c 4
 231.038 96.0117 261.129 93.1748 291.219 90.3369 c 4
 301.264 89.3896 308.239 79.248 307.943 69.3682 c 4
 307.391 50.9092 306.838 32.4492 306.285 13.9902 c 4
 305.808 -1.95117 297.32 -9.46387 286.129 -9.96875 c 4
 226.111 -12.6738 165.618 -10.2979 118.273 -0.65625 c 4
 107.877 1.46094 97.4473 10.1836 93.46 24.2939 c 4
 91.4326 31.4678 96.4951 92.3486 103.54 151.765 c 4
 113.836 238.599 118.828 305.63 127.066 405.884 c 4
 131.782 463.277 128.889 475.231 73.3633 527.416 c 4
 65.5938 534.718 72.9229 546.062 78.8799 554.026 c 4
 89.2109 567.838 112.241 588.924 128.504 599.06 c 4
 137.699 604.79 150.052 607.521 158.146 596.583 c 4
 240.647 485.096 298.711 418.939 425.957 276.803 c 4
 435.175 266.506 447.511 269.589 455.92 279.85 c 4
 499.018 332.437 548.535 386.091 497.578 441.091 c 6
 416.857 528.216 l 6
 410.001 535.617 411.642 547.849 418.478 554.988 c 4
 431.249 568.328 444.021 581.667 456.792 595.007 c 4
 467.821 606.526 479.155 606.423 487.806 599.304 c 4
 534.191 561.124 576.205 513.747 619.873 453.268 c 4
 626.084 444.666 631.017 429.213 623.284 416.755 c 4
 581.485 349.409 529.262 279.623 484.83 237.706 c 4
EndSplineSet
Validated: 524321
EndChar

StartChar: afii57665
Encoding: 225 1489 1
Width: 705
VWidth: 0
Flags: W
HStem: -6.22266 92.3486<592.349 634.604> 0.932617 96.3135<106.047 494.75> 475.585 104.176<114.517 470.491>
VStem: 503.766 64.75<110.928 439.658>
LayerCount: 2
Fore
SplineSet
356.33 579.761 m 4x70
 594.227 574.086 562.656 548.904 565.568 374.616 c 6
 568.516 198.215 l 5
 573.121 142.694 576.27 108.366 621.484 86.126 c 4
 630.857 81.5146 634.641 78.9834 634.58 66.9844 c 6
 635.297 8.96484 l 6
 635.254 0.493164 630.914 -6.69629 617.734 -6.22266 c 4xb0
 561.914 -4.2168 451.237 2.17773 367.515 0.932617 c 4
 287.167 -0.260742 216.22 -5.44238 150.917 -9.17871 c 4
 77.1445 -13.3984 68.5117 -16.1543 70.1797 16.042 c 6
 75.0459 81.7773 l 5
 74.5557 93.1865 85.7646 96.7695 100.233 96.3398 c 4
 224.2 92.6602 352.405 92.5791 472.421 97.2461 c 4
 508.018 98.6309 503.809 189.529 503.766 211.246 c 6
 503.469 361.585 l 6
 503.426 383.302 495.832 472.2 423.236 475.585 c 4
 303.26 481.178 248.48 478.757 128.049 476.491 c 4
 113.576 476.219 101.37 481.645 102.861 491.054 c 4
 108.509 525.435 114.497 559.734 121.168 593.928 c 4
 122.03 598.35 124.275 600.931 127.927 600.87 c 6
 140.563 600.663 l 6
 146.771 600.561 162.659 582.237 180.761 582.208 c 4
 245.689 582.102 308.338 580.899 356.33 579.761 c 4x70
EndSplineSet
Validated: 524321
EndChar

StartChar: afii57666
Encoding: 226 1490 2
Width: 475
VWidth: 0
Flags: W
LayerCount: 2
Fore
SplineSet
244.023 186.007 m 0
 263.461 202.087 293.023 226.191 290.527 241.804 c 2
 267.825 383.757 l 2
 262.354 417.971 248.64 451.655 219.536 469.24 c 0
 193.667 484.871 141.93 516.133 141.93 516.133 c 2
 133.295 521.35 131.419 533.516 135.978 542.285 c 2
 161.534 591.441 l 2
 168.891 605.592 179.799 608.671 190.099 604.262 c 0
 245.329 580.621 274.635 561.029 333.509 515.221 c 0
 341.883 508.705 352.744 495.57 350.204 481.13 c 0
 348.012 468.668 332.388 382.326 344.226 311.174 c 2
 378.367 105.971 l 2
 383.081 77.6406 404.738 23.7803 405.094 18.25 c 0
 405.629 9.92871 402.946 7.32812 401.715 5.06543 c 0
 393.987 -9.13281 334.301 -7.57129 328.22 -7.22461 c 0
 322.272 -6.88477 319.601 1.09082 320.234 8.44629 c 0
 321.702 25.4971 321.037 44.7656 318.129 64.083 c 2
 306.733 139.772 l 2
 305.445 148.327 299.996 150.849 289.279 138.238 c 0
 231.308 70.0254 205.144 43.9219 142.047 -8.40527 c 0
 134.771 -14.4395 125.018 -14.8135 118.142 -7.27344 c 0
 96.4434 16.5215 84.7119 34.0059 71.6953 60.3545 c 0
 68.3027 67.2217 69.6641 76.0391 78.8633 80.8252 c 0
 136.031 110.562 208.602 156.704 244.023 186.007 c 0
EndSplineSet
Validated: 524321
EndChar

StartChar: afii57667
Encoding: 227 1491 3
Width: 704
VWidth: 0
Flags: W
HStem: 476.069 99.1465<121.272 489.832> 476.976 108.519<82.7559 419.814>
VStem: 497.967 65.1875<2.62011 456.875>
LayerCount: 2
Fore
SplineSet
87.9414 597.214 m 2x60
 88.6895 601.656 91.0488 604.217 94.6992 604.157 c 2
 107.337 603.949 l 2
 113.544 603.847 134.196 586.052 147.534 585.494 c 0x60
 206.31 583.038 296.246 576.409 366.092 575.216 c 0
 449.812 573.784 560.99 577.532 616.811 579.538 c 0
 629.992 580.012 634.332 572.823 634.373 564.351 c 2
 634.717 495.538 l 2
 634.771 484.645 627.457 481.664 621.113 478.259 c 2
 594.592 464.022 l 2
 566.936 449.177 563.666 419.401 563.592 375.101 c 2
 563.154 102.194 l 2
 563.162 78.0801 570.375 34.0693 570.375 34.0693 c 1
 569.635 25.667 567.955 23.1455 567 20.7256 c 0
 559.006 6.5127 502.109 -14.7031 496.154 -15.1182 c 0
 490.211 -15.5322 488.154 -4.82812 488.154 -0.680664 c 0
 490.199 34.5684 497.836 68.4424 497.967 107.694 c 2
 498.842 362.069 l 2
 498.916 383.786 503.094 474.686 467.498 476.069 c 0xa0
 347.484 480.737 215.742 479.241 95.3105 476.976 c 0
 80.8389 476.703 68.6328 482.129 70.123 491.538 c 2
 87.9414 597.214 l 2x60
EndSplineSet
Validated: 524321
EndChar

StartChar: afii57668
Encoding: 228 1492 4
Width: 712
VWidth: 0
Flags: W
HStem: 475.075 98.4346<130.859 497.728> 475.981 108.519<90.6515 427.709>
VStem: 505.862 65.1875<19.845 451.764>
LayerCount: 2
Fore
SplineSet
129.146 300.645 m 0x20
 132.176 313.59 137.866 323.53 143.003 323.962 c 0
 169.986 326.23 184.258 326.549 197.868 326.029 c 0
 205.558 325.735 205.847 324.824 204.798 317.587 c 0
 200.905 290.723 197.086 278.466 193.873 256.205 c 2
 160.761 26.7471 l 1
 160.468 14.0869 153.237 10.6416 148.177 7.82617 c 0
 124.125 -4.51855 105.137 -11.4072 78.9912 -16.4736 c 0
 73.0322 -17.6289 69.8809 -12.0352 70.0039 -1.14453 c 1
 85.5928 112.359 103.539 191.266 129.146 300.645 c 0x20
96.1533 596.78 m 2
 96.9111 601.221 99.2607 603.785 102.912 603.723 c 2
 114.983 603.515 l 2
 123.945 603.36 140.551 585.058 153.89 584.5 c 0x60
 212.665 582.044 304.14 574.704 373.987 573.51 c 0
 457.707 572.078 568.886 576.538 624.706 578.544 c 0
 637.886 579.018 642.226 571.828 642.269 563.356 c 2
 642.612 494.544 l 2
 642.674 482.545 637.101 484.097 628.456 478.231 c 2
 602.487 460.611 l 2
 580.354 445.594 571.562 418.407 571.487 374.106 c 2
 571.05 101.2 l 2
 571.057 77.0859 577.22 33.0752 577.22 33.0752 c 1
 576.479 24.6729 574.801 22.1514 573.845 19.7314 c 0
 565.852 5.51855 512.481 -15.6973 506.527 -16.1123 c 0
 500.584 -16.5264 498.527 -5.82324 498.527 -1.6748 c 0
 500.571 33.5742 505.729 67.4473 505.862 106.7 c 2
 506.737 361.075 l 2
 506.811 382.792 510.989 473.69 475.394 475.075 c 0xa0
 355.378 479.742 223.638 478.247 103.206 475.981 c 0x60
 88.7344 475.709 76.5283 481.135 78.0186 490.544 c 2
 96.1533 596.78 l 2
EndSplineSet
Validated: 524321
EndChar

StartChar: afii57669
Encoding: 229 1493 5
Width: 356
VWidth: 0
Flags: W
VStem: 207.727 65.1729<24.1464 439.684>
LayerCount: 2
Fore
SplineSet
202.608 2.87891 m 0
 204.651 37.7246 207.65 80.2637 207.727 119.067 c 2
 208.018 268.317 l 2
 208.113 317.669 206.609 336.191 203.976 383.757 c 0
 202.736 418.383 184.789 451.655 155.686 469.24 c 2
 78.0801 516.133 l 2
 69.8418 521.957 67.9902 533.309 72.1279 542.285 c 2
 97.6836 591.441 l 2
 104.672 605.777 115.949 608.671 126.248 604.262 c 0
 181.479 580.621 210.784 561.029 269.659 515.221 c 0
 278.033 508.705 288.894 495.571 286.354 481.13 c 1
 286.354 481.13 272.73 381.032 272.774 308.901 c 2
 272.899 104.582 l 2
 272.914 80.7432 274.678 37.2197 274.678 37.2197 c 2
 273.938 28.9131 272.255 26.4268 271.299 24.0342 c 0
 263.306 9.98438 216.549 -10.9922 210.595 -11.4033 c 0
 204.651 -11.8125 202.608 -1.22168 202.608 2.87891 c 0
EndSplineSet
Validated: 524321
EndChar

StartChar: afii57670
Encoding: 230 1494 6
Width: 383
VWidth: 0
Flags: W
VStem: 132.844 70.5898<24.4326 115.769>
LayerCount: 2
Fore
SplineSet
311.867 461.161 m 2
 279.7 411.191 l 2
 271.114 397.852 257.728 413.527 240.361 413.43 c 0
 192.363 413.159 181.363 357.912 184.118 312.148 c 2
 196.617 104.525 l 2
 198.05 80.7295 203.434 37.5752 203.434 37.5752 c 1
 202.876 29.2549 201.247 26.7324 200.343 24.3193 c 0
 192.658 10.0977 147.083 -12.6064 141.14 -13.1465 c 0
 135.207 -13.6855 132.934 -3.14258 132.844 0.957031 c 0
 134.128 35.8389 133.602 78.8613 131.144 117.587 c 2
 122.365 255.877 l 2
 117.355 334.812 114.061 335.982 129.686 359.773 c 2
 172.404 424.818 l 2
 181.202 438.215 174.467 451.62 163.302 458.65 c 2
 78.0801 512.312 l 2
 69.8428 518.136 67.9902 529.487 72.1279 538.464 c 2
 97.6846 587.621 l 2
 104.673 601.956 115.949 604.85 126.249 600.441 c 0
 181.48 576.8 235.071 541.494 293.945 495.686 c 0
 302.319 489.17 319.804 473.49 311.867 461.161 c 2
EndSplineSet
Validated: 524321
EndChar

StartChar: afii57671
Encoding: 231 1495 7
Width: 670
VWidth: 0
Flags: W
HStem: 476.11 104.209<189.115 500.813>
VStem: 95.3193 80.2891<9.3681 220.396> 115.358 56.6318<273.999 459.67> 528.898 72.0703<15.9216 446.438>
LayerCount: 2
Fore
SplineSet
171.99 384.081 m 0xb0
 168.612 263.532 171.708 142.678 175.608 22.4414 c 1
 174.869 14.1348 173.186 11.6484 172.229 9.25586 c 0
 164.236 -4.79492 109.259 -25.7715 103.305 -26.1816 c 0
 97.3613 -26.5908 95.3193 -16.001 95.3193 -11.9004 c 0xd0
 97.3623 22.9453 99.3877 65.5205 101.056 104.288 c 2
 115.358 436.674 l 2
 116.905 472.629 67.0879 474.482 70.1348 491.595 c 2
 88.4541 594.457 l 2
 89.3047 598.887 91.5371 601.473 95.1865 601.402 c 2
 107.836 601.189 l 2
 114.037 601.118 134.694 582.765 148.053 582.765 c 0
 212.435 582.622 338.575 581.453 386.587 580.319 c 0
 624.449 574.614 593.707 549.469 595.818 375.162 c 2
 599.197 96.3477 l 2
 599.486 72.5029 600.969 28.9893 600.969 28.9893 c 2
 600.225 20.6982 598.559 18.2178 597.602 15.8086 c 0
 589.594 1.74121 542.822 -19.2354 536.869 -19.625 c 0
 530.953 -20.0498 528.898 -9.45508 528.898 -5.34473 c 0
 530.953 29.4854 534.045 72.041 534 110.84 c 2
 533.705 362.123 l 2
 533.68 383.843 526.086 472.745 453.484 476.11 c 1
 368.391 481.555 294.641 483.974 228.275 476.346 c 0
 192.326 472.214 173.745 446.703 171.99 384.081 c 0xb0
EndSplineSet
Validated: 524321
EndChar

StartChar: afii57672
Encoding: 232 1496 8
Width: 680
VWidth: 0
Flags: W
VStem: 543.061 62.6172<188.308 446.185>
LayerCount: 2
Fore
SplineSet
462.454 113.643 m 0
 491.355 130.775 541.658 176.234 543.061 302.959 c 0
 544.547 437.055 529.613 451.354 488.375 466.164 c 0
 463.61 475.06 430.487 463.398 416.714 441.806 c 0
 410.93 432.739 407.857 427.232 399.539 431.31 c 2
 384.217 438.819 l 2
 374.655 443.507 373.986 448.213 376.776 454.896 c 0
 391.895 491.116 411.037 526.331 436.915 559.861 c 0
 446.95 572.863 465.482 578.773 490.578 571.854 c 0
 647.014 528.721 605.086 505.41 605.678 384.406 c 0
 606.799 154.754 588.584 91.8496 495.969 42.3613 c 0
 429.721 6.96191 228.426 -63.6104 179.889 31.3662 c 0
 143.218 103.122 115.012 193.428 104.507 276.296 c 0
 94.5596 354.762 95.5811 355.987 111.119 379.861 c 2
 152.306 443.149 l 2
 160.313 455.454 154.385 469.057 142.902 475.557 c 2
 78.3955 512.075 l 2
 69.6162 517.045 67.8848 529.458 72.4434 538.228 c 2
 98 587.384 l 2
 105.356 601.534 116.265 604.613 126.564 600.204 c 0
 181.796 576.563 214.672 558.4 273.547 512.592 c 0
 281.92 506.076 299.388 490.407 291.468 478.067 c 2
 257.534 425.193 l 2
 246.426 407.885 230.619 429.852 211.323 432.874 c 0
 196.414 435.21 151.258 398.518 158.891 327.892 c 0
 167.281 250.25 183.679 175.338 218.911 111.549 c 0
 257.123 42.3623 398.966 76.0068 462.454 113.643 c 0
EndSplineSet
Validated: 524321
EndChar

StartChar: afii57673
Encoding: 233 1497 9
Width: 353
VWidth: 0
Flags: W
VStem: 72.1279 211.044
LayerCount: 2
Fore
SplineSet
235.569 278.746 m 1
 227.576 264.695 189.189 252.321 183.235 251.911 c 0
 177.292 251.502 175.56 252.938 175.249 257.026 c 0
 182.557 310.807 223.702 418.827 155.686 464.839 c 1
 78.0801 511.73 l 2
 69.8418 517.555 67.9902 528.907 72.1279 537.883 c 2
 97.6846 587.04 l 2
 104.672 601.376 115.949 604.269 126.248 599.86 c 0
 181.479 576.219 210.785 556.628 269.659 510.819 c 0
 278.033 504.304 285.712 491.169 283.172 476.728 c 0
 268.615 393.964 245.237 308.265 235.569 278.746 c 1
EndSplineSet
Validated: 524321
EndChar

StartChar: afii57674
Encoding: 234 1498 10
Width: 704
VWidth: 0
Flags: W
HStem: 477.498 99.1455<121.271 489.832> 478.404 108.519<82.7559 419.814>
VStem: 494.994 77.1211<-184.425 -58.1832> 500.113 65.1738<-184.425 460.044>
LayerCount: 2
Fore
SplineSet
563.592 376.529 m 2x90
 565.287 -57.0176 l 2x90
 565.293 -80.8564 572.115 -171.352 572.115 -171.352 c 1
 571.375 -179.658 569.693 -182.145 568.736 -184.537 c 0
 560.744 -198.587 508.936 -219.564 502.98 -219.975 c 0
 497.037 -220.384 495 -209.794 494.994 -205.693 c 0xa0
 497.039 -170.847 500.08 -118.712 500.113 -79.9082 c 2
 498.842 363.498 l 2
 498.916 385.215 503.094 476.113 467.498 477.498 c 0x90
 347.484 482.165 215.742 480.67 95.3105 478.404 c 0
 80.8389 478.132 68.6328 483.558 70.123 492.967 c 2
 87.9404 598.643 l 2
 88.6895 603.085 91.0488 605.646 94.6992 605.585 c 2
 107.336 605.378 l 2
 113.544 605.275 134.195 587.48 147.534 586.923 c 0x50
 206.31 584.467 296.246 577.838 366.092 576.644 c 0
 449.812 575.213 560.99 578.961 616.811 580.967 c 0
 629.99 581.44 634.332 574.251 634.373 565.779 c 2
 634.717 496.967 l 2
 634.771 486.073 627.457 483.093 621.113 479.688 c 2
 594.592 465.451 l 2
 566.936 450.604 563.666 420.83 563.592 376.529 c 2x90
EndSplineSet
Validated: 524321
EndChar

StartChar: afii57675
Encoding: 235 1499 11
Width: 634
VWidth: 0
Flags: W
HStem: -8.29297 105.019<83.3544 364.186 465.592 487.882> 480.929 100.307<127.228 386.792>
VStem: 496.936 64.75<101.304 415.244>
LayerCount: 2
Fore
SplineSet
559.552 379.054 m 1
 561.686 198.601 l 2
 562.733 30.9648 565.973 -4.37598 505.118 -2.90332 c 0
 447.23 -1.50195 424.567 -0.481445 364.186 -1.51367 c 0
 294.339 -2.70801 195.897 -5.86035 137.12 -8.29297 c 0
 96.0742 -9.99219 67.4473 -13.0205 70.1807 3.4873 c 2
 83.21 82.1631 l 1
 86.2188 94.0723 93.9248 96.998 108.397 96.7256 c 0
 228.829 94.46 345.577 92.9648 465.592 97.6318 c 0
 501.188 99.0166 496.775 189.916 496.936 211.632 c 2
 496.923 353.295 l 2
 497.539 421.03 455.661 443.246 366.83 464.497 c 0
 296.295 481.371 241.573 484.309 143.282 480.929 c 0
 125.266 480.31 117.354 487.818 118.625 497.259 c 2
 127.168 560.719 l 2
 129.942 581.327 138.66 581.62 195.505 581.235 c 0
 301.734 580.518 391.351 568.219 483.605 537.312 c 0
 592.784 500.735 560.077 486.644 559.552 379.054 c 1
EndSplineSet
Validated: 524321
EndChar

StartChar: afii57676
Encoding: 236 1500 12
Width: 617
VWidth: 0
Flags: W
HStem: 481.51 104.209<159.186 449.625>
VStem: 71.375 109<773.514 855.756> 106.812 52.375<588.105 794.283>
LayerCount: 2
Fore
SplineSet
333.994 585.719 m 0xa0
 555.316 581.923 516.538 569.932 543.942 386.801 c 0
 553.582 322.376 546.073 291.454 520.03 249.996 c 0
 484.485 193.413 451.232 147.38 406.571 98.2705 c 0
 379.911 68.9561 331.403 18.2441 299.708 -10.3506 c 0
 295.53 -14.1191 287.376 -16.79 283.321 -11.5518 c 0
 267.327 9.11035 260.366 18.3125 251.554 34.7236 c 0
 249.46 38.6221 251.379 43.624 255.352 46.6982 c 0
 278.376 64.5137 309.155 91.46 340.613 121.953 c 0
 392.547 172.291 436.509 227.479 474.301 290.398 c 0
 484.629 307.595 487.127 319.366 481.828 372.572 c 0
 479.676 394.186 473.495 478.13 400.893 481.51 c 0
 280.916 487.095 245.422 484.708 124.985 482.431 c 0
 110.493 482.157 99.1768 487.472 99.792 496.994 c 0
 100.412 506.575 106.754 551.584 106.812 579.544 c 0xa0
 106.886 614.502 106.958 649.459 107.031 684.417 c 0
 107.103 718.485 97.9307 775.585 76.1562 813.167 c 0
 72.0898 820.186 67.709 827.116 71.375 834.167 c 0
 74.6865 840.536 84.749 860.702 90.375 870.693 c 0
 98.1289 884.465 105.175 888.247 114.906 884.011 c 0
 126.848 878.812 156.101 858.869 166.969 849.604 c 0
 173.461 844.07 187.095 833.456 180.375 822.198 c 0xc0
 155.341 780.257 159.049 770.493 159.094 717.042 c 0
 159.125 679.873 159.157 642.704 159.188 605.535 c 0
 159.197 594.496 168.966 588.528 182.213 588.044 c 0
 195.46 587.559 285.978 586.542 333.994 585.719 c 0xa0
EndSplineSet
Validated: 524321
EndChar

StartChar: afii57677
Encoding: 237 1501 13
Width: 665
VWidth: 0
Flags: W
HStem: -6.49609 100.825<145.597 396.989 498.396 518.299> 483.723 101.369<164.033 459.42>
VStem: 71.3193 69.3379<102.019 340.262> 87.1963 60.8545<226.623 471.783> 529.74 64.749<103.106 442.544>
LayerCount: 2
Fore
SplineSet
148.051 348.993 m 2xd8
 140.657 184.965 l 2xe8
 136.742 98.1006 150.307 95.7637 197.107 94.3291 c 0
 285.483 91.6221 408.461 94.8086 498.396 99.4287 c 0
 533.972 101.257 529.718 191.712 529.74 213.429 c 2
 529.892 364.469 l 2
 529.924 396.179 522.06 473.119 449.658 479.42 c 0
 338.409 489.101 274.529 492.569 193.53 483.723 c 0
 160.065 480.067 152.474 447.118 148.051 348.993 c 2xd8
90.9258 596.812 m 0
 90.8418 601.315 94.0361 603.885 97.6846 603.754 c 2
 114.165 603.162 l 2
 120.369 602.939 141.013 585.12 154.362 585.092 c 0
 218.768 584.955 334.761 583.783 382.753 582.645 c 0
 626.798 576.97 589.529 551.795 591.989 377.5 c 2
 594.489 200.397 l 2
 596.855 32.7754 598.776 -2.5791 537.922 -1.10645 c 0
 480.034 0.294922 457.371 1.31543 396.989 0.283203 c 0
 327.143 -0.911133 191.58 -3.60547 132.824 -6.49609 c 0
 69.5391 -9.60938 67.0898 -29.3672 71.3193 137.894 c 0xe8
 72.4727 183.487 85.7061 402.699 87.1963 449.348 c 0xd8
 87.8164 468.742 92.0039 538.854 90.9258 596.812 c 0
EndSplineSet
Validated: 524321
EndChar

StartChar: afii57678
Encoding: 238 1502 14
Width: 702
VWidth: 0
Flags: W
HStem: -7.29297 105.019<240.051 458.13 535.067 555.529>
VStem: 564.582 64.75<102.164 426.67>
LayerCount: 2
Fore
SplineSet
241.147 505.284 m 0
 246.913 495.297 257.083 496.911 269.28 514.725 c 2
 314.262 580.417 l 2
 324.418 595.25 349.92 598.061 382.29 593.039 c 0
 440.711 583.977 503.107 563.8 551.252 541.348 c 0
 661.382 489.988 627.724 491.18 627.198 383.589 c 1
 629.332 199.601 l 2
 630.38 31.9648 635.601 -4.4873 572.765 -1.90332 c 0
 531.888 -0.22168 515.714 0.518555 455.332 -0.513672 c 0
 385.484 -1.70801 352.844 -3.61035 293.817 -7.29297 c 0
 252.815 -9.85059 224.144 -12.0205 226.878 4.4873 c 2
 239.906 83.1631 l 1
 242.916 95.0723 250.628 98.2422 265.094 97.7256 c 0
 384.525 93.46 413.224 93.9648 533.238 98.6318 c 0
 568.834 100.017 564.422 190.916 564.582 212.632 c 2
 564.569 357.83 l 2
 564.563 427.067 530.427 446.473 467.477 465.497 c 0
 388.277 489.433 357.197 489.836 303.859 477.333 c 0
 241.212 462.646 216.898 375.527 202.193 299.073 c 2
 159.735 78.3301 l 2
 155.232 54.9209 149.667 17.3428 149.667 17.3428 c 2
 147.335 9.33594 145.203 7.22168 143.802 5.05957 c 0
 133.244 -7.18066 81.3721 -8.21094 75.4512 -7.46191 c 0
 69.54 -6.71484 69.583 4.07031 70.376 8.09375 c 0
 79.1182 41.8867 91.2256 67.0439 98.5928 105.143 c 2
 130.812 271.775 l 2
 141.341 326.229 172.657 424.792 135.351 471.334 c 2
 98.4619 517.353 l 2
 91.2988 526.29 85.9199 532.37 97.6787 544.163 c 2
 139.219 585.822 l 2
 152.152 598.793 160.172 602.839 173.758 590.05 c 0
 203.434 562.115 219.542 542.705 241.147 505.284 c 0
EndSplineSet
Validated: 524321
EndChar

StartChar: afii57679
Encoding: 239 1503 15
Width: 372
VWidth: 0
Flags: W
VStem: 163.313 65.4736<-172.887 21.3355> 164.298 51.8711<77.7924 371.046>
LayerCount: 2
Fore
SplineSet
300.496 470.146 m 0x40
 272.374 433.062 250.443 396.763 230.378 358.582 c 0
 219.9 338.646 214.757 332.683 216.169 289.891 c 2x40
 228.787 -92.4365 l 2
 229.573 -116.263 232.032 -159.744 232.032 -159.744 c 2
 231.474 -168.064 229.846 -170.587 228.941 -173 c 0
 221.257 -187.221 174.968 -209.212 169.023 -209.751 c 0
 163.091 -210.29 160.817 -199.747 160.729 -195.647 c 0
 162.012 -160.766 163.192 -118.179 163.313 -79.375 c 2x80
 164.298 237.013 l 2
 164.512 306.015 159.886 332.077 169.587 346.465 c 2
 213.916 412.213 l 2
 217.689 417.811 217.58 428.017 206.738 435.535 c 0
 169.45 461.391 119.493 491.372 78.0801 513.397 c 1
 69.8428 519.222 67.9902 530.574 72.1279 539.55 c 2
 97.6846 588.707 l 2
 104.673 603.043 115.949 605.936 126.249 601.527 c 0
 181.479 577.886 224.927 550.045 283.802 504.236 c 0
 292.176 497.721 309.356 481.828 300.496 470.146 c 0x40
EndSplineSet
Validated: 524321
EndChar

StartChar: afii57680
Encoding: 240 1504 16
Width: 425
VWidth: 0
Flags: W
HStem: -10.6768 108.435<81.72 217.793>
VStem: 276.29 65.1738<88.7776 435.3>
LayerCount: 2
Fore
SplineSet
256.243 88.2305 m 2
 271.027 87.2588 276.21 99.5039 276.29 134.982 c 2
 276.581 263.914 l 2
 276.692 313.266 275.173 331.788 272.54 379.354 c 0
 271.3 413.979 253.279 447.296 224.25 464.837 c 2
 146.644 511.729 l 2
 138.406 517.553 136.554 528.905 140.691 537.882 c 2
 166.248 587.038 l 2
 173.236 601.374 184.513 604.267 194.812 599.858 c 0
 250.044 576.217 279.349 556.626 338.223 510.817 c 0
 346.597 504.302 357.458 491.167 354.918 476.726 c 1
 354.918 476.726 341.291 376.628 341.338 304.497 c 2
 341.464 113.413 l 2
 341.479 89.5752 346.678 20.9297 347.408 12.7178 c 0
 348.557 -0.188477 343.305 -4.03027 335.41 -3.72754 c 0
 326.953 -3.40234 260.733 -2.48047 216.278 -3.54688 c 0
 169.064 -4.67969 134.194 -7.8877 82.1631 -10.6768 c 0
 72.6191 -11.4717 68.8975 -4.01758 70.2793 4.80176 c 2
 82.291 81.4756 l 2
 83.1641 87.0459 87.8506 99.2988 111.299 97.7578 c 2
 256.243 88.2305 l 2
EndSplineSet
Validated: 524321
EndChar

StartChar: afii57681
Encoding: 241 1505 17
Width: 648
VWidth: 0
Flags: W
HStem: 487.178 100.055<78.8483 138.544>
VStem: 509.154 62.6152<165.948 410.213>
LayerCount: 2
Fore
SplineSet
137.639 447.065 m 2
 149.671 466.187 127.85 481.298 94.7852 487.178 c 0
 77.0361 490.334 68.8564 494.066 70.1279 503.508 c 0
 72.9756 524.661 75.8232 545.814 78.6709 566.968 c 0
 81.4443 587.576 92.9404 587.616 149.786 587.232 c 0
 256.015 586.514 393.622 574.674 485.723 543.309 c 0
 609.901 501.018 575.407 501.173 571.77 385.05 c 0
 564.615 156.676 564.012 88.6768 482.111 44.1885 c 0
 416.107 8.33496 236.706 -46.6895 166.03 33.1924 c 0
 112.277 93.9492 88.3877 190.966 80.042 278.123 c 0
 73.5615 345.801 81.5459 357.931 96.7061 382.021 c 2
 137.639 447.065 l 2
368.946 467.463 m 0
 250.742 487.732 147.295 465.464 144.478 330.051 c 0
 142.576 238.643 158.804 163.648 201.012 113.376 c 0
 251.833 52.8438 385.107 77.834 448.596 115.47 c 0
 477.498 132.603 504.327 178.147 509.154 279.864 c 0
 515.142 406.05 489.027 446.872 368.946 467.463 c 0
EndSplineSet
Validated: 524321
EndChar

StartChar: afii57682
Encoding: 242 1506 18
Width: 707
VWidth: 0
Flags: W
HStem: -122.973 118.772<82.9988 168.609> 505.633 98.709<91.5427 118.215 423.312 441.126>
LayerCount: 2
Fore
SplineSet
314.788 43.1592 m 0
 344.041 51.7441 335.42 88.8252 320.901 135.906 c 2
 266.962 310.833 l 2
 252.42 357.994 245.672 377.464 230.888 422.749 c 0
 220.143 455.661 200.168 482.158 173.922 488.086 c 2
 96.2207 505.633 l 2
 86.3799 507.854 80.8467 518.91 82.4688 528.66 c 2
 91.5605 583.312 l 2
 94.1777 599.044 103.598 605.347 114.756 604.342 c 0
 174.592 598.95 228.725 585.348 268.074 567.075 c 0
 277.697 562.607 297.328 554.211 294.498 539.823 c 0
 286.15 497.384 298.266 435.914 318.979 366.821 c 2
 395.624 111.167 l 2
 401.409 91.873 408.075 77.0723 424.448 84.5205 c 0
 444.533 93.6572 451.645 98.0537 471.612 111.622 c 0
 518.856 143.726 542.985 155.205 553.026 348.63 c 0
 556.987 424.938 542.656 471.597 510.106 481.434 c 0
 481.175 490.178 452.243 498.922 423.312 507.666 c 0
 413.653 510.585 408.825 521.907 411.073 531.532 c 0
 415.272 549.517 419.473 567.5 423.672 585.483 c 0
 427.299 601.015 437.106 606.696 448.176 604.974 c 0
 507.539 595.733 556.943 580.466 609.159 554.185 c 0
 618.636 549.415 640.624 537.42 636.8 523.265 c 0
 623.3 473.29 616.909 424.196 614.835 387.438 c 0
 600.616 135.493 580.931 95.8545 505.128 40.3418 c 0
 422.705 -20.0186 211.438 -99.1689 80.7539 -122.973 c 0
 76.0674 -123.826 69.3994 -121.194 70.043 -106.266 c 0
 70.7246 -90.4395 81.0811 -38.1689 83.5498 -22.1348 c 0
 84.8672 -13.584 87.1875 -5.87598 101.724 -4.2002 c 0
 159.42 2.45312 257.819 26.4385 314.788 43.1592 c 0
EndSplineSet
Validated: 524321
EndChar

StartChar: afii57683
Encoding: 243 1507 19
Width: 594
VWidth: 0
Flags: W
HStem: 237.168 95.582<214.135 267.22> 486.892 99.5859<162.919 339.463>
VStem: 453.455 64.3477<-183.805 420.445>
LayerCount: 2
Fore
SplineSet
447.854 -205.067 m 0
 450.78 -151.279 453.454 -130.86 453.455 -74.4854 c 2
 453.456 358.496 l 2
 453.456 426.234 412.193 448.447 323.363 469.698 c 0
 279.016 480.308 240.927 485.659 194.315 486.892 c 0
 170.244 487.528 170.101 487.518 162.917 465.632 c 0
 147.69 419.24 140.546 382.758 193.465 362.534 c 2
 193.465 362.534 245.422 342.679 271.4 332.75 c 0
 280.824 329.148 284.977 317.64 282.138 308.173 c 0
 276.834 290.482 271.529 272.793 266.226 255.104 c 0
 261.645 239.827 251.431 234.445 240.562 237.168 c 0
 182.387 251.739 136.352 269.839 90.1016 296.051 c 0
 80.8711 301.282 67.3545 312.682 70.4512 327.014 c 0
 83.4854 387.326 92.6338 418.349 105.997 458.731 c 0
 108.347 465.833 108.978 484.741 89.8154 488.13 c 0
 81.4658 489.606 73.8506 493.024 75.1582 502.46 c 0
 79.5752 534.342 84.3525 566.189 87.7031 598.21 c 0
 88.1719 602.695 90.7852 605.217 94.4346 605.155 c 2
 107.085 604.942 l 2
 113.285 604.838 130.407 586.578 146.134 586.478 c 0
 254.732 585.779 347.884 573.42 440.139 542.513 c 0
 549.317 505.937 515.661 491.846 516.084 384.255 c 2
 517.803 -52.9561 l 2
 517.91 -80.2305 525.377 -166.207 524.975 -170.726 c 0
 524.235 -179.032 522.827 -181.647 521.596 -183.911 c 0
 513.868 -198.109 461.795 -218.938 455.841 -219.349 c 0
 449.897 -219.758 447.632 -209.161 447.854 -205.067 c 0
EndSplineSet
Validated: 524321
EndChar

StartChar: afii57684
Encoding: 244 1508 20
Width: 620
VWidth: 0
Flags: W
HStem: -17.3135 107.33<83.3535 350.043 451.449 474.46> 472.671 99.585<192.243 368.794>
VStem: 482.793 64.75<92.2836 406.223>
LayerCount: 2
Fore
SplineSet
136.409 590.721 m 2
 142.609 590.65 159.731 572.356 175.458 572.256 c 0
 284.057 571.559 377.208 559.198 469.463 528.292 c 0
 578.642 491.715 545.935 477.624 545.408 370.033 c 1
 547.543 189.58 l 2
 548.59 21.9443 551.829 -13.3955 490.975 -11.9229 c 0
 433.087 -10.5225 410.424 -9.50195 350.043 -10.5342 c 0
 280.195 -11.7285 195.896 -14.8799 137.119 -17.3135 c 0
 96.0732 -19.0117 67.4463 -22.041 70.1807 -5.53223 c 2
 83.209 73.1436 l 1
 86.2178 85.0518 93.9297 90.4902 108.396 90.0166 c 0
 228.953 86.0645 331.434 83.9443 451.449 88.6113 c 0
 487.045 89.9961 482.633 180.896 482.793 202.611 c 2
 482.78 344.274 l 2
 483.396 412.01 441.518 434.226 352.688 455.477 c 0
 308.34 466.086 270.251 471.438 223.64 472.671 c 0
 199.568 473.308 199.425 473.296 192.241 451.41 c 0
 177.015 405.02 170.246 369.492 222.79 348.312 c 1
 300.725 318.529 l 2
 310.148 314.928 314.302 303.419 311.463 293.951 c 2
 295.55 240.882 l 2
 290.969 225.605 280.755 220.224 269.887 222.946 c 0
 211.711 237.518 165.676 255.617 119.426 281.829 c 0
 110.195 287.061 96.6787 298.46 99.7764 312.792 c 0
 112.81 373.104 121.958 404.127 135.321 444.51 c 0
 137.671 451.611 138.302 470.52 119.14 473.908 c 0
 110.79 475.386 103.175 478.803 104.482 488.239 c 0
 108.899 520.12 113.677 551.968 117.027 583.989 c 0
 117.496 588.475 120.109 591.005 123.76 590.934 c 2
 136.409 590.721 l 2
EndSplineSet
Validated: 524321
EndChar

StartChar: afii57685
Encoding: 245 1509 21
Width: 622
VWidth: 0
Flags: W
VStem: 183.12 71.3037<-172.887 -81.1939>
LayerCount: 2
Fore
SplineSet
247.197 118.047 m 0
 235.612 107.381 232.14 95.8838 233.476 79.6641 c 2
 247.643 -92.4365 l 2
 249.599 -116.195 254.424 -159.744 254.424 -159.744 c 1
 253.866 -168.064 252.237 -170.587 251.333 -173 c 0
 243.648 -187.221 197.359 -209.212 191.415 -209.751 c 0
 185.482 -210.29 183.209 -199.747 183.12 -195.647 c 0
 184.403 -160.766 184.358 -118.117 182.17 -79.375 c 2
 164.298 237.013 l 2
 160.406 305.905 156.918 335.505 165.42 350.632 c 2
 203.015 417.517 l 2
 206.322 423.401 206.679 433.32 195.837 440.838 c 0
 158.549 466.694 119.493 491.372 78.0801 513.397 c 1
 69.8428 519.222 67.9902 530.574 72.1279 539.55 c 2
 97.6846 588.707 l 2
 104.673 603.043 115.949 605.936 126.249 601.527 c 0
 181.479 577.886 214.026 555.348 272.9 509.54 c 0
 281.274 503.024 298.455 487.132 289.595 475.448 c 0
 261.473 438.365 239.361 402.016 221.833 361.823 c 0
 210.074 334.858 212.656 332.561 216.169 289.891 c 2
 224.493 188.777 l 2
 225.953 171.038 236.85 167.927 249.662 180.186 c 0
 384.182 308.884 480.741 406.61 440.561 448.548 c 2
 359.33 533.328 l 2
 352.351 540.612 353.736 552.856 360.433 560.127 c 2
 397.968 600.878 l 2
 408.772 612.608 420.105 612.724 428.892 605.772 c 0
 476.007 568.496 499.161 541.916 543.989 482.291 c 0
 550.364 473.811 556.256 458.04 548.105 445.852 c 0
 484.605 350.894 374.139 234.917 247.197 118.047 c 0
EndSplineSet
Validated: 524321
EndChar

StartChar: afii57686
Encoding: 246 1510 22
Width: 648
VWidth: 0
Flags: W
HStem: -8.16992 105.019<102.058 375.517> 503.11 99.4189<79.4143 181.546>
LayerCount: 2
Fore
SplineSet
420.459 95.8164 m 0
 440.726 96.2559 434.39 103.844 423.964 112.307 c 2
 218.492 279.089 l 2
 157.935 328.244 170.08 351.778 190.352 408.728 c 2
 204.754 449.189 l 2
 208.896 460.825 211.593 472.514 198.94 476.254 c 0
 155.427 489.116 130.16 494.146 84.1191 503.11 c 0
 74.2158 505.038 68.6875 516.321 70.2676 526.078 c 0
 73.2207 544.309 76.1729 562.539 79.125 580.769 c 0
 81.6748 596.512 91.0547 603.486 102.217 602.529 c 0
 162.075 597.395 199.279 588.716 266.09 563.097 c 0
 278.045 558.513 299.706 548.178 292.644 535.327 c 0
 267.124 488.891 249.095 444.676 238.32 416.562 c 0
 221.83 373.538 241.898 341.701 277.432 312.675 c 0
 333.26 267.07 359.756 268.995 403.332 310.099 c 0
 460.295 363.829 504.107 410.815 468.182 441.974 c 0
 438.614 467.616 409.047 493.259 379.479 518.901 c 0
 371.857 525.512 372.108 537.831 378.105 545.688 c 0
 389.312 560.367 400.517 575.047 411.723 589.727 c 0
 421.399 602.403 432.674 603.563 442.063 597.452 c 0
 492.416 564.68 517.922 540.348 568.058 485.11 c 0
 575.188 477.255 582.872 461.89 575.517 449.206 c 0
 518.014 350.06 478.54 309.955 398.637 238.517 c 0
 387.866 228.887 398.22 215.291 415.279 201.457 c 2
 495.327 136.549 l 2
 514.191 121.252 527.001 111.649 537.331 102.305 c 0
 543.516 96.7109 545.165 90.8594 545.936 87.1807 c 0
 549.251 71.3594 534.253 26.7676 530.498 18.1338 c 0
 525.716 7.1416 519.252 -3.32227 505.685 -2.78027 c 0
 447.706 -0.466797 422.355 -0.359375 361.975 -1.3916 c 0
 292.127 -2.58594 214.646 -5.7373 155.87 -8.16992 c 0
 114.823 -9.86914 86.1963 -12.8984 88.9307 3.61035 c 0
 93.2734 29.835 101.959 82.2861 101.959 82.2861 c 2
 103.966 94.4043 112.675 97.1211 127.146 96.8486 c 0
 226.119 94.9863 322.84 93.6973 420.459 95.8164 c 0
EndSplineSet
Validated: 524321
EndChar

StartChar: afii57687
Encoding: 247 1511 23
Width: 599
VWidth: 0
Flags: W
HStem: 481.108 105.731<83.3108 431.636>
VStem: 138.773 49.9775<176.12 299.568> 146.039 69.9951<-176.052 -86.7345> 466.055 63.4141<275.203 370.389>
LayerCount: 2
Fore
SplineSet
138.773 251.142 m 2xd0
 138.396 273.236 165.612 312.781 180.543 314.681 c 0
 185.479 315.309 188.313 313.923 188.751 305.813 c 2xd0
 210.42 -95.6611 l 2
 211.704 -119.465 216.034 -162.812 216.034 -162.812 c 2
 215.77 -171.146 214.23 -173.726 213.412 -176.167 c 0
 206.233 -190.651 160.747 -214.258 154.826 -215.007 c 0
 148.916 -215.755 146.272 -205.299 146.039 -201.204 c 0xb0
 146.093 -166.299 145.191 -123.711 144.526 -84.9131 c 2
 138.773 251.142 l 2xd0
70.1641 495.671 m 0
 76.5381 529.852 82.9121 564.032 89.2871 598.214 c 0
 90.1123 602.643 92.3945 605.216 96.0459 605.156 c 0
 100.258 605.087 104.47 605.018 108.683 604.948 c 0
 120.488 604.755 136.22 587.144 152.887 586.84 c 0
 169.411 586.54 267.785 585.542 315.795 584.396 c 0
 559.342 578.579 516.922 555.303 525.742 387.319 c 0
 526.984 363.666 528.229 340.013 529.469 316.359 c 0
 530.285 300.814 530.072 283.901 518.432 268.203 c 0
 468.244 200.52 397.59 124.803 332.957 71.3594 c 0
 327.902 67.1787 321.445 67.6709 317.58 72.0156 c 0
 309.662 80.915 306.1 124.422 307.189 134.597 c 0
 307.82 140.495 308.777 144.744 314.791 150.005 c 0
 364.154 193.188 415.387 239.431 456.102 289.076 c 0
 461.902 296.149 466.609 303.675 466.055 316.236 c 0
 465.246 334.574 464.438 352.911 463.629 371.249 c 0
 462.672 392.949 455.295 476.808 382.693 480.187 c 0
 262.717 485.771 215.794 483.386 95.3574 481.108 c 0
 80.8652 480.834 68.415 486.291 70.1641 495.671 c 0
EndSplineSet
Validated: 524321
EndChar

StartChar: afii57688
Encoding: 248 1512 24
Width: 590
VWidth: 0
Flags: W
HStem: 476.615 104.208<81.7728 420.16>
VStem: 453.347 65.1973<16.4255 440.714>
LayerCount: 2
Fore
SplineSet
518.544 96.8516 m 2
 518.833 73.0068 520.315 29.4932 520.315 29.4932 c 2
 519.571 21.2021 517.906 18.7217 516.949 16.3125 c 0
 508.941 2.24512 462.17 -18.7314 456.217 -19.1211 c 0
 450.3 -19.5459 448.245 -8.95117 448.245 -4.84082 c 0
 450.3 29.9893 453.393 72.5449 453.347 111.344 c 2
 453.052 362.627 l 2
 453.026 384.347 445.434 473.249 372.831 476.615 c 0
 252.855 482.213 215.753 479.804 95.3164 477.536 c 0
 80.8242 477.253 68.6348 482.674 70.123 492.099 c 0
 75.7568 526.469 81.7451 560.769 88.4424 594.961 c 0
 89.293 599.391 91.5244 601.978 95.1748 601.906 c 2
 107.824 601.693 l 2
 114.024 601.623 134.683 583.269 148.041 583.269 c 0
 212.423 583.127 257.922 581.957 305.934 580.823 c 0
 543.796 575.119 513.055 549.974 515.166 375.666 c 2
 518.544 96.8516 l 2
EndSplineSet
Validated: 524321
EndChar

StartChar: afii57689
Encoding: 249 1513 25
Width: 775
VWidth: 0
Flags: W
VStem: 289.76 79.668<169.612 244.542>
LayerCount: 2
Fore
SplineSet
493.113 117.728 m 0
 541.713 146.982 580.246 211.13 596.802 338.864 c 0
 614.038 471.856 597.823 482.708 556.511 507.226 c 0
 548.097 512.22 544.441 521.659 549.533 531.372 c 2
 578.605 586.827 l 2
 586.205 601.323 597.74 603.663 612.331 596.496 c 0
 647.39 579.275 673.792 563.128 690.492 549.681 c 0
 731.651 516.541 675.524 512.954 669.014 424.598 c 0
 652.034 194.168 619.243 95.9346 526.629 46.4473 c 0
 460.379 11.0469 218.78 -59.5254 170.242 35.4512 c 0
 133.572 107.207 106.096 203.165 94.8604 285.938 c 0
 85.9238 351.776 88.666 358.371 101.473 389.503 c 2
 127.508 452.791 l 2
 133.093 466.368 129.318 478.245 118.104 485.197 c 2
 78.3467 509.847 l 2
 69.7715 515.162 67.835 527.229 72.3945 535.999 c 2
 97.9502 585.155 l 2
 105.307 599.306 116.218 602.391 126.515 597.976 c 0
 159.271 583.932 217.649 548.249 238.392 527.947 c 0
 245.974 520.525 264.232 505.763 256.312 493.423 c 2
 222.379 440.549 l 2
 211.271 423.24 205.821 439.492 186.524 442.516 c 0
 171.615 444.852 141.612 408.159 149.245 337.532 c 0
 157.636 259.892 174.033 179.423 209.265 115.634 c 0
 247.478 46.4473 429.88 79.665 493.113 117.728 c 0
289.76 185.424 m 0
 302.928 221.903 319.377 263.152 330.73 304.381 c 0
 345.867 359.351 372.195 467.558 333.64 513.101 c 0
 327.12 520.801 323.109 530.472 327.659 539.247 c 0
 336.16 555.642 344.661 572.036 353.162 588.432 c 0
 360.503 602.59 371.466 605.812 381.712 601.282 c 0
 414.102 586.962 446.838 566.594 465.019 547.948 c 0
 472.425 540.352 489.854 521.042 477.554 506.866 c 0
 440.402 464.052 427.171 403.365 407.104 334.081 c 2
 386.387 262.545 l 2
 379.755 239.647 371.115 190.882 369.428 186.671 c 0
 366.324 178.931 364.146 176.905 362.391 175.02 c 0
 350.582 162.344 305.089 161.081 293.29 169.446 c 0
 288.43 172.892 288.368 181.566 289.76 185.424 c 0
EndSplineSet
Validated: 524321
EndChar

StartChar: afii57690
Encoding: 250 1514 26
Width: 749
VWidth: 0
Flags: W
HStem: -9.83887 106.24<82.4335 210.587> 476.11 104.209<275.989 579.359>
VStem: 210.883 50.4863<167.512 462.668> 612.547 65.1953<15.9216 440.21>
LayerCount: 2
Fore
SplineSet
261.369 384.081 m 0
 261.742 263.116 267.615 139.686 274.988 20.9922 c 0
 275.732 8.99512 271.59 5.17383 266.088 2.28613 c 0
 254.047 -4.03418 208.641 -6.35938 202.685 -6.74023 c 0
 164.177 -9.2002 95.4736 -10.6553 78.4424 -9.83887 c 0
 71.8379 -9.52246 69.1348 -4.71289 70.2412 3.4873 c 0
 74.2197 32.9941 77.7764 56.998 82.4082 88.6436 c 0
 82.8955 91.9736 86.7246 96.5039 92.3359 96.4014 c 0
 109.146 96.0928 177.876 90.6152 200.073 94.667 c 0
 208.601 96.2236 211.091 98.4697 210.883 109.42 c 2
 204.738 432.507 l 2
 203.701 487.01 144.609 468.729 148.682 491.595 c 2
 167 594.457 l 2
 167.851 598.887 170.083 601.473 173.732 601.402 c 2
 186.382 601.189 l 2
 192.583 601.118 213.24 582.765 226.598 582.765 c 0
 290.98 582.622 417.121 581.453 465.133 580.319 c 0
 702.994 574.614 672.254 549.47 674.365 375.162 c 2
 677.742 96.3477 l 2
 678.031 72.5029 679.516 28.9893 679.516 28.9893 c 2
 678.771 20.6982 677.105 18.2178 676.148 15.8086 c 0
 668.141 1.74121 621.369 -19.2354 615.416 -19.625 c 0
 609.498 -20.0498 607.443 -9.45508 607.443 -5.34473 c 0
 609.498 29.4854 612.592 72.041 612.547 110.84 c 2
 612.252 362.123 l 2
 612.225 383.843 604.633 472.745 532.031 476.11 c 1
 446.938 481.555 380.686 483.974 314.32 476.346 c 0
 278.371 472.214 261.178 446.728 261.369 384.081 c 0
EndSplineSet
Validated: 524321
EndChar

StartChar: period
Encoding: 46 46 28
Width: 278
Flags: W
HStem: -15 21G<123 152> -15 142<123 152>
VStem: 79 119<33 75.5>
LayerCount: 2
Fore
SplineSet
139 127 m 4x60
 168 127 198 105 198 57 c 4
 198 2 165 -15 139 -15 c 4
 107 -15 79 9 79 57 c 4
 79 94 95 127 139 127 c 4x60
EndSplineSet
Validated: 1
EndChar
